<svg xmlns="http://www.w3.org/2000/svg" width="1366" height="768"><path d="M-217,-216L-67,-216L82,-217Z" fill="#ce2e29" stroke="#ce2e29" stroke-width="1.51"/><path d="M82,-217L233,-216L382,-217Z" fill="#df643e" stroke="#df643e" stroke-width="1.51"/><path d="M82,983L-66,984L383,985Z" fill="#ad697a" stroke="#ad697a" stroke-width="1.51"/><path d="M233,983L82,983L383,985Z" fill="#ad7883" stroke="#ad7883" stroke-width="1.51"/><path d="M834,983L683,984L982,985Z" fill="#98a4c9" stroke="#98a4c9" stroke-width="1.51"/><path d="M832,-217L982,-216L1133,-217Z" fill="#d38c86" stroke="#d38c86" stroke-width="1.51"/><path d="M1432,832L1433,983L1581,982Z" fill="#4470b2" stroke="#4470b2" stroke-width="1.51"/><path d="M1434,-67L1434,84L1581,83Z" fill="#b17b83" stroke="#b17b83" stroke-width="1.51"/><path d="M1133,-217L1282,-216L1581,-216Z" fill="#aa6974" stroke="#aa6974" stroke-width="1.51"/><path d="M1282,-216L1433,-215L1581,-216Z" fill="#a05a6e" stroke="#a05a6e" stroke-width="1.51"/><path d="M1433,-215L1434,-67L1581,-216Z" fill="#a5576c" stroke="#a5576c" stroke-width="1.51"/><path d="M1433,534L1431,684L1582,683Z" fill="#7ea4ce" stroke="#7ea4ce" stroke-width="1.51"/><path d="M1431,684L1432,832L1582,683Z" fill="#6996c6" stroke="#6996c6" stroke-width="1.51"/><path d="M1433,534L1582,683L1582,532Z" fill="#87a0cd" stroke="#87a0cd" stroke-width="1.51"/><path d="M1434,383L1433,534L1582,532Z" fill="#9cafce" stroke="#9cafce" stroke-width="1.51"/><path d="M1434,383L1582,532L1582,384Z" fill="#a1a9c0" stroke="#a1a9c0" stroke-width="1.51"/><path d="M1582,683L1432,832L1583,834Z" fill="#5d86be" stroke="#5d86be" stroke-width="1.51"/><path d="M1432,832L1581,982L1583,834Z" fill="#4b72b3" stroke="#4b72b3" stroke-width="1.51"/><path d="M1581,83L1434,84L1583,234Z" fill="#ae878d" stroke="#ae878d" stroke-width="1.51"/><path d="M1434,84L1432,235L1583,234Z" fill="#b09999" stroke="#b09999" stroke-width="1.51"/><path d="M1434,383L1582,384L1583,234Z" fill="#a9a5ae" stroke="#a9a5ae" stroke-width="1.51"/><path d="M1432,235L1434,383L1583,234Z" fill="#ada8aa" stroke="#ada8aa" stroke-width="1.51"/><path d="M1581,-216L1434,-67L1583,-66Z" fill="#a6556d" stroke="#a6556d" stroke-width="1.51"/><path d="M1434,-67L1581,83L1583,-66Z" fill="#ae6779" stroke="#ae6779" stroke-width="1.51"/><path d="M1581,83L1583,234L1583,-66Z" fill="#ac7482" stroke="#ac7482" stroke-width="1.51"/><path d="M1282,532L1282,685L1431,684Z" fill="#8ebbda" stroke="#8ebbda" stroke-width="1.51"/><path d="M1282,685L1283,833L1431,684Z" fill="#78acd1" stroke="#78acd1" stroke-width="1.51"/><path d="M1431,684L1283,833L1432,832Z" fill="#699dc9" stroke="#699dc9" stroke-width="1.51"/><path d="M1283,233L1283,382L1432,235Z" fill="#bbc0b4" stroke="#bbc0b4" stroke-width="1.51"/><path d="M1432,832L1283,833L1433,983Z" fill="#5789bf" stroke="#5789bf" stroke-width="1.51"/><path d="M1283,833L1283,984L1433,983Z" fill="#5585bd" stroke="#5585bd" stroke-width="1.51"/><path d="M1282,532L1431,684L1433,534Z" fill="#92b8d9" stroke="#92b8d9" stroke-width="1.51"/><path d="M1432,235L1283,382L1434,383Z" fill="#b5bdb9" stroke="#b5bdb9" stroke-width="1.51"/><path d="M1282,532L1433,534L1434,383Z" fill="#a5bfd5" stroke="#a5bfd5" stroke-width="1.51"/><path d="M1283,382L1282,532L1434,383Z" fill="#b2c9ce" stroke="#b2c9ce" stroke-width="1.51"/><path d="M1283,233L1432,235L1434,84Z" fill="#b9a89f" stroke="#b9a89f" stroke-width="1.51"/><path d="M1283,84L1283,233L1434,84Z" fill="#c0a79a" stroke="#c0a79a" stroke-width="1.51"/><path d="M1433,-215L1282,-216L1434,-67Z" fill="#af6672" stroke="#af6672" stroke-width="1.51"/><path d="M1282,-216L1281,-65L1434,-67Z" fill="#ba767a" stroke="#ba767a" stroke-width="1.51"/><path d="M1283,84L1434,84L1434,-67Z" fill="#bb8b89" stroke="#bb8b89" stroke-width="1.51"/><path d="M1281,-65L1283,84L1434,-67Z" fill="#c18886" stroke="#c18886" stroke-width="1.51"/><path d="M1132,-68L1132,85L1281,-65Z" fill="#d39b8f" stroke="#d39b8f" stroke-width="1.51"/><path d="M1131,683L1134,834L1282,685Z" fill="#8cbfdb" stroke="#8cbfdb" stroke-width="1.51"/><path d="M1133,533L1131,683L1282,685Z" fill="#a0cee4" stroke="#a0cee4" stroke-width="1.51"/><path d="M1133,533L1282,685L1282,532Z" fill="#a3cee3" stroke="#a3cee3" stroke-width="1.51"/><path d="M1131,383L1133,533L1282,532Z" fill="#bddbe3" stroke="#bddbe3" stroke-width="1.51"/><path d="M1132,-68L1281,-65L1282,-216Z" fill="#c58480" stroke="#c58480" stroke-width="1.51"/><path d="M1133,-217L1132,-68L1282,-216Z" fill="#c6817e" stroke="#c6817e" stroke-width="1.51"/><path d="M1134,834L1133,984L1283,984Z" fill="#6a97c7" stroke="#6a97c7" stroke-width="1.51"/><path d="M1134,834L1283,984L1283,833Z" fill="#6a9dc9" stroke="#6a9dc9" stroke-width="1.51"/><path d="M1282,685L1134,834L1283,833Z" fill="#7ab2d4" stroke="#7ab2d4" stroke-width="1.51"/><path d="M1131,383L1282,532L1283,382Z" fill="#bed7d5" stroke="#bed7d5" stroke-width="1.51"/><path d="M1134,234L1131,383L1283,382Z" fill="#ccd9c6" stroke="#ccd9c6" stroke-width="1.51"/><path d="M1134,234L1283,382L1283,233Z" fill="#c6ceba" stroke="#c6ceba" stroke-width="1.51"/><path d="M1281,-65L1132,85L1283,84Z" fill="#cda192" stroke="#cda192" stroke-width="1.51"/><path d="M1134,234L1283,233L1283,84Z" fill="#c9bea9" stroke="#c9bea9" stroke-width="1.51"/><path d="M1132,85L1134,234L1283,84Z" fill="#d2bba3" stroke="#d2bba3" stroke-width="1.51"/><path d="M981,534L982,684L1131,683Z" fill="#b5deec" stroke="#b5deec" stroke-width="1.51"/><path d="M982,684L984,833L1131,683Z" fill="#a1cee3" stroke="#a1cee3" stroke-width="1.51"/><path d="M983,233L982,384L1131,383Z" fill="#dee8cd" stroke="#dee8cd" stroke-width="1.51"/><path d="M983,84L983,233L1132,85Z" fill="#e4caaa" stroke="#e4caaa" stroke-width="1.51"/><path d="M983,-65L983,84L1132,85Z" fill="#e5b59d" stroke="#e5b59d" stroke-width="1.51"/><path d="M983,-65L1132,85L1132,-68Z" fill="#dfa694" stroke="#dfa694" stroke-width="1.51"/><path d="M982,-216L983,-65L1132,-68Z" fill="#dd988a" stroke="#dd988a" stroke-width="1.51"/><path d="M984,833L982,985L1133,984Z" fill="#80a5cf" stroke="#80a5cf" stroke-width="1.51"/><path d="M981,534L1131,683L1133,533Z" fill="#b8dfec" stroke="#b8dfec" stroke-width="1.51"/><path d="M1131,383L982,384L1133,533Z" fill="#d1e9de" stroke="#d1e9de" stroke-width="1.51"/><path d="M982,384L981,534L1133,533Z" fill="#d0eaeb" stroke="#d0eaeb" stroke-width="1.51"/><path d="M982,-216L1132,-68L1133,-217Z" fill="#d28c83" stroke="#d28c83" stroke-width="1.51"/><path d="M984,833L1133,984L1134,834Z" fill="#80add3" stroke="#80add3" stroke-width="1.51"/><path d="M1131,683L984,833L1134,834Z" fill="#8fc3dd" stroke="#8fc3dd" stroke-width="1.51"/><path d="M1132,85L983,233L1134,234Z" fill="#dcd0b1" stroke="#dcd0b1" stroke-width="1.51"/><path d="M983,233L1131,383L1134,234Z" fill="#d9dfc3" stroke="#d9dfc3" stroke-width="1.51"/><path d="M834,385L831,533L981,534Z" fill="#e4f4f1" stroke="#e4f4f1" stroke-width="1.51"/><path d="M831,533L833,685L981,534Z" fill="#d3ecf5" stroke="#d3ecf5" stroke-width="1.51"/><path d="M981,534L833,685L982,684Z" fill="#c3e4ef" stroke="#c3e4ef" stroke-width="1.51"/><path d="M834,385L981,534L982,384Z" fill="#e4f3e5" stroke="#e4f3e5" stroke-width="1.51"/><path d="M832,-217L832,-67L982,-216Z" fill="#e9988a" stroke="#e9988a" stroke-width="1.51"/><path d="M834,385L982,384L983,233Z" fill="#ebefd1" stroke="#ebefd1" stroke-width="1.51"/><path d="M831,232L834,385L983,233Z" fill="#f2edca" stroke="#f2edca" stroke-width="1.51"/><path d="M833,84L831,232L983,233Z" fill="#f4ddb8" stroke="#f4ddb8" stroke-width="1.51"/><path d="M833,84L983,233L983,84Z" fill="#efd0ae" stroke="#efd0ae" stroke-width="1.51"/><path d="M982,-216L832,-67L983,-65Z" fill="#e99e8d" stroke="#e99e8d" stroke-width="1.51"/><path d="M833,84L983,84L983,-65Z" fill="#f0bba0" stroke="#f0bba0" stroke-width="1.51"/><path d="M832,-67L833,84L983,-65Z" fill="#f6b39c" stroke="#f6b39c" stroke-width="1.51"/><path d="M834,983L982,985L984,833Z" fill="#8eacd3" stroke="#8eacd3" stroke-width="1.51"/><path d="M832,835L834,983L984,833Z" fill="#9cbadb" stroke="#9cbadb" stroke-width="1.51"/><path d="M982,684L833,685L984,833Z" fill="#afd5e7" stroke="#afd5e7" stroke-width="1.51"/><path d="M833,685L832,835L984,833Z" fill="#accfe5" stroke="#accfe5" stroke-width="1.51"/><path d="M682,534L682,684L831,533Z" fill="#e1f1df" stroke="#e1f1df" stroke-width="1.51"/><path d="M683,384L682,534L831,533Z" fill="#f1f9dc" stroke="#f1f9dc" stroke-width="1.51"/><path d="M684,84L681,232L831,232Z" fill="#fde2a3" stroke="#fde2a3" stroke-width="1.51"/><path d="M681,232L683,384L831,232Z" fill="#fcf2b4" stroke="#fcf2b4" stroke-width="1.51"/><path d="M681,833L683,984L832,835Z" fill="#acbec7" stroke="#acbec7" stroke-width="1.51"/><path d="M684,-217L681,-66L832,-67Z" fill="#f6a57b" stroke="#f6a57b" stroke-width="1.51"/><path d="M681,-66L684,84L832,-67Z" fill="#feb887" stroke="#feb887" stroke-width="1.51"/><path d="M684,-217L832,-67L832,-217Z" fill="#ee9b7d" stroke="#ee9b7d" stroke-width="1.51"/><path d="M831,533L682,684L833,685Z" fill="#d3ebe4" stroke="#d3ebe4" stroke-width="1.51"/><path d="M681,833L832,835L833,685Z" fill="#b7d3d8" stroke="#b7d3d8" stroke-width="1.51"/><path d="M682,684L681,833L833,685Z" fill="#c5ddd5" stroke="#c5ddd5" stroke-width="1.51"/><path d="M832,-67L684,84L833,84Z" fill="#fcc295" stroke="#fcc295" stroke-width="1.51"/><path d="M684,84L831,232L833,84Z" fill="#fcd7a2" stroke="#fcd7a2" stroke-width="1.51"/><path d="M832,835L683,984L834,983Z" fill="#a1b2c8" stroke="#a1b2c8" stroke-width="1.51"/><path d="M831,232L683,384L834,385Z" fill="#f9f6c5" stroke="#f9f6c5" stroke-width="1.51"/><path d="M683,384L831,533L834,385Z" fill="#f3f9d8" stroke="#f3f9d8" stroke-width="1.51"/><path d="M533,832L532,984L681,833Z" fill="#b3b9b4" stroke="#b3b9b4" stroke-width="1.51"/><path d="M533,83L531,233L681,232Z" fill="#ffdb8f" stroke="#ffdb8f" stroke-width="1.51"/><path d="M533,-217L532,-66L681,-66Z" fill="#f69f68" stroke="#f69f68" stroke-width="1.51"/><path d="M532,-66L533,83L681,-66Z" fill="#feb174" stroke="#feb174" stroke-width="1.51"/><path d="M533,832L681,833L682,684Z" fill="#c2d2c4" stroke="#c2d2c4" stroke-width="1.51"/><path d="M532,684L533,832L682,684Z" fill="#cbd7c2" stroke="#cbd7c2" stroke-width="1.51"/><path d="M532,684L682,684L682,534Z" fill="#ddead0" stroke="#ddead0" stroke-width="1.51"/><path d="M532,532L532,684L682,534Z" fill="#e6ebcd" stroke="#e6ebcd" stroke-width="1.51"/><path d="M681,833L532,984L683,984Z" fill="#abb0b5" stroke="#abb0b5" stroke-width="1.51"/><path d="M681,232L531,233L683,384Z" fill="#ffefa7" stroke="#ffefa7" stroke-width="1.51"/><path d="M531,233L531,385L683,384Z" fill="#fff1aa" stroke="#fff1aa" stroke-width="1.51"/><path d="M532,532L682,534L683,384Z" fill="#f5f6ce" stroke="#f5f6ce" stroke-width="1.51"/><path d="M531,385L532,532L683,384Z" fill="#fbf4be" stroke="#fbf4be" stroke-width="1.51"/><path d="M681,-66L533,83L684,84Z" fill="#ffc180" stroke="#ffc180" stroke-width="1.51"/><path d="M533,83L681,232L684,84Z" fill="#ffd68d" stroke="#ffd68d" stroke-width="1.51"/><path d="M533,-217L681,-66L684,-217Z" fill="#f19b69" stroke="#f19b69" stroke-width="1.51"/><path d="M384,84L382,235L531,233Z" fill="#ffcd7d" stroke="#ffcd7d" stroke-width="1.51"/><path d="M383,384L531,385L531,233Z" fill="#ffe89e" stroke="#ffe89e" stroke-width="1.51"/><path d="M382,235L383,384L531,233Z" fill="#ffdd8f" stroke="#ffdd8f" stroke-width="1.51"/><path d="M383,833L383,985L532,984Z" fill="#af9f9d" stroke="#af9f9d" stroke-width="1.51"/><path d="M381,534L381,684L532,684Z" fill="#e0d7b7" stroke="#e0d7b7" stroke-width="1.51"/><path d="M381,684L383,833L532,684Z" fill="#cec8b0" stroke="#cec8b0" stroke-width="1.51"/><path d="M531,385L383,384L532,532Z" fill="#fbecb1" stroke="#fbecb1" stroke-width="1.51"/><path d="M383,384L381,534L532,532Z" fill="#f7e4b6" stroke="#f7e4b6" stroke-width="1.51"/><path d="M381,534L532,684L532,532Z" fill="#e8e2c0" stroke="#e8e2c0" stroke-width="1.51"/><path d="M381,-66L384,84L532,-66Z" fill="#fca362" stroke="#fca362" stroke-width="1.51"/><path d="M382,-217L381,-66L532,-66Z" fill="#f39057" stroke="#f39057" stroke-width="1.51"/><path d="M532,684L383,833L533,832Z" fill="#c4c6b2" stroke="#c4c6b2" stroke-width="1.51"/><path d="M383,833L532,984L533,832Z" fill="#b5b1a9" stroke="#b5b1a9" stroke-width="1.51"/><path d="M532,-66L384,84L533,83Z" fill="#fdb56e" stroke="#fdb56e" stroke-width="1.51"/><path d="M384,84L531,233L533,83Z" fill="#ffca7b" stroke="#ffca7b" stroke-width="1.51"/><path d="M382,-217L532,-66L533,-217Z" fill="#ee8e58" stroke="#ee8e58" stroke-width="1.51"/><path d="M233,683L381,684L381,534Z" fill="#e2cbab" stroke="#e2cbab" stroke-width="1.51"/><path d="M233,534L233,683L381,534Z" fill="#ecc9a8" stroke="#ecc9a8" stroke-width="1.51"/><path d="M233,-68L232,83L381,-66Z" fill="#f98e51" stroke="#f98e51" stroke-width="1.51"/><path d="M234,232L231,384L382,235Z" fill="#ffca7d" stroke="#ffca7d" stroke-width="1.51"/><path d="M233,-68L381,-66L382,-217Z" fill="#f1824b" stroke="#f1824b" stroke-width="1.51"/><path d="M233,-216L233,-68L382,-217Z" fill="#ea7342" stroke="#ea7342" stroke-width="1.51"/><path d="M381,684L233,683L383,833Z" fill="#d1bca4" stroke="#d1bca4" stroke-width="1.51"/><path d="M233,683L231,835L383,833Z" fill="#c9ad9a" stroke="#c9ad9a" stroke-width="1.51"/><path d="M233,983L383,985L383,833Z" fill="#b19292" stroke="#b19292" stroke-width="1.51"/><path d="M231,835L233,983L383,833Z" fill="#b99791" stroke="#b99791" stroke-width="1.51"/><path d="M233,534L381,534L383,384Z" fill="#f9d7a9" stroke="#f9d7a9" stroke-width="1.51"/><path d="M231,384L233,534L383,384Z" fill="#fdd399" stroke="#fdd399" stroke-width="1.51"/><path d="M382,235L231,384L383,384Z" fill="#ffd68c" stroke="#ffd68c" stroke-width="1.51"/><path d="M381,-66L232,83L384,84Z" fill="#fca15c" stroke="#fca15c" stroke-width="1.51"/><path d="M234,232L382,235L384,84Z" fill="#fec072" stroke="#fec072" stroke-width="1.51"/><path d="M232,83L234,232L384,84Z" fill="#feb063" stroke="#feb063" stroke-width="1.51"/><path d="M83,683L81,835L231,835Z" fill="#c9968d" stroke="#c9968d" stroke-width="1.51"/><path d="M81,835L82,983L231,835Z" fill="#b98184" stroke="#b98184" stroke-width="1.51"/><path d="M83,383L82,534L231,384Z" fill="#fdbb8c" stroke="#fdbb8c" stroke-width="1.51"/><path d="M81,233L83,383L231,384Z" fill="#ffb779" stroke="#ffb779" stroke-width="1.51"/><path d="M83,-68L84,84L232,83Z" fill="#f7814b" stroke="#f7814b" stroke-width="1.51"/><path d="M231,835L82,983L233,983Z" fill="#b27d84" stroke="#b27d84" stroke-width="1.51"/><path d="M83,683L231,835L233,683Z" fill="#d2a696" stroke="#d2a696" stroke-width="1.51"/><path d="M231,384L82,534L233,534Z" fill="#f9c19b" stroke="#f9c19b" stroke-width="1.51"/><path d="M83,683L233,683L233,534Z" fill="#e3b59d" stroke="#e3b59d" stroke-width="1.51"/><path d="M82,534L83,683L233,534Z" fill="#ecb29b" stroke="#ecb29b" stroke-width="1.51"/><path d="M83,-68L232,83L233,-68Z" fill="#f77d4a" stroke="#f77d4a" stroke-width="1.51"/><path d="M83,-68L233,-68L233,-216Z" fill="#ed6a3f" stroke="#ed6a3f" stroke-width="1.51"/><path d="M82,-217L83,-68L233,-216Z" fill="#e55737" stroke="#e55737" stroke-width="1.51"/><path d="M81,233L231,384L234,232Z" fill="#ffba75" stroke="#ffba75" stroke-width="1.51"/><path d="M232,83L84,84L234,232Z" fill="#fca05c" stroke="#fca05c" stroke-width="1.51"/><path d="M84,84L81,233L234,232Z" fill="#fca260" stroke="#fca260" stroke-width="1.51"/><path d="M-67,684L-67,834L81,835Z" fill="#c38381" stroke="#c38381" stroke-width="1.51"/><path d="M-67,834L-66,984L81,835Z" fill="#b36e78" stroke="#b36e78" stroke-width="1.51"/><path d="M-67,84L-67,234L81,233Z" fill="#f38e54" stroke="#f38e54" stroke-width="1.51"/><path d="M81,835L-66,984L82,983Z" fill="#ae6877" stroke="#ae6877" stroke-width="1.51"/><path d="M-68,534L-67,684L82,534Z" fill="#e59e8e" stroke="#e59e8e" stroke-width="1.51"/><path d="M-67,384L-68,534L82,534Z" fill="#f2a58a" stroke="#f2a58a" stroke-width="1.51"/><path d="M82,534L-67,684L83,683Z" fill="#e0a08f" stroke="#e0a08f" stroke-width="1.51"/><path d="M-67,684L81,835L83,683Z" fill="#ce9288" stroke="#ce9288" stroke-width="1.51"/><path d="M81,233L-67,234L83,383Z" fill="#f9a569" stroke="#f9a569" stroke-width="1.51"/><path d="M-67,234L-67,384L83,383Z" fill="#f8a46d" stroke="#f8a46d" stroke-width="1.51"/><path d="M-67,384L82,534L83,383Z" fill="#f9ae84" stroke="#f9ae84" stroke-width="1.51"/><path d="M82,-217L-67,-216L83,-68Z" fill="#df4630" stroke="#df4630" stroke-width="1.51"/><path d="M-67,-216L-68,-67L83,-68Z" fill="#e24830" stroke="#e24830" stroke-width="1.51"/><path d="M-68,-67L-67,84L83,-68Z" fill="#ec5e3b" stroke="#ec5e3b" stroke-width="1.51"/><path d="M83,-68L-67,84L84,84Z" fill="#f27244" stroke="#f27244" stroke-width="1.51"/><path d="M-67,84L81,233L84,84Z" fill="#f68a50" stroke="#f68a50" stroke-width="1.51"/><path d="M-219,534L-217,683L-68,534Z" fill="#d78f86" stroke="#d78f86" stroke-width="1.51"/><path d="M-218,382L-219,534L-68,534Z" fill="#e49582" stroke="#e49582" stroke-width="1.51"/><path d="M-217,-216L-219,-65L-68,-67Z" fill="#d2352b" stroke="#d2352b" stroke-width="1.51"/><path d="M-219,-65L-217,84L-68,-67Z" fill="#dd4d35" stroke="#dd4d35" stroke-width="1.51"/><path d="M-218,834L-217,983L-67,834Z" fill="#a55f70" stroke="#a55f70" stroke-width="1.51"/><path d="M-68,534L-217,683L-67,684Z" fill="#d68e84" stroke="#d68e84" stroke-width="1.51"/><path d="M-218,834L-67,834L-67,684Z" fill="#bc787a" stroke="#bc787a" stroke-width="1.51"/><path d="M-217,683L-218,834L-67,684Z" fill="#be7c7d" stroke="#be7c7d" stroke-width="1.51"/><path d="M-218,382L-68,534L-67,384Z" fill="#ef9c79" stroke="#ef9c79" stroke-width="1.51"/><path d="M-218,382L-67,384L-67,234Z" fill="#f09866" stroke="#f09866" stroke-width="1.51"/><path d="M-219,233L-218,382L-67,234Z" fill="#e88e5e" stroke="#e88e5e" stroke-width="1.51"/><path d="M-217,84L-219,233L-67,234Z" fill="#e57e4e" stroke="#e57e4e" stroke-width="1.51"/><path d="M-217,84L-67,234L-67,84Z" fill="#ea7846" stroke="#ea7846" stroke-width="1.51"/><path d="M-68,-67L-217,84L-67,84Z" fill="#e65f3a" stroke="#e65f3a" stroke-width="1.51"/><path d="M-217,-216L-68,-67L-67,-216Z" fill="#d22d27" stroke="#d22d27" stroke-width="1.51"/><path d="M-67,834L-217,983L-66,984Z" fill="#a4576c" stroke="#a4576c" stroke-width="1.51"/><path d="M-219,534L-218,834L-217,683Z" fill="#c08080" stroke="#c08080" stroke-width="1.51"/><path d="M-219,-65L-219,233L-217,84Z" fill="#db643f" stroke="#db643f" stroke-width="1.51"/><path d="M-219,233L-219,534L-218,382Z" fill="#e4966e" stroke="#e4966e" stroke-width="1.51"/></svg>